<svg height="512pt" viewBox="0 0 512 512" width="512pt" xmlns="http://www.w3.org/2000/svg"><path d="m437 212.820312h-74.40625c-8.285156 0-15 6.71875-15 15 0 1.957032.386719 3.820313 1.066406 5.535157 2.203125 5.542969 7.605469 9.464843 13.933594 9.464843h74.40625c24.8125 0 45 20.1875 45 45v149.179688c0 24.8125-20.1875 45-45 45h-169.574219c-24.8125 0-45-20.1875-45-45v-164.527344c0-9.195312 7.480469-16.675781 16.675781-16.675781h33.796876c25.738281 0 46.675781-20.9375 46.675781-46.675781v-134.121094c0-41.355469-33.644531-75-75-75h-169.574219c-41.355469 0-75 33.644531-75 75v159.574219c0 41.355469 33.644531 75 75 75h117.425781v127.425781c0 41.355469 33.644531 75 75 75h169.574219c41.355469 0 75-33.644531 75-75v-149.179688c0-41.351562-33.644531-75-75-75zm-244.574219 66.753907h-117.425781c-24.8125 0-45-20.1875-45-45v-159.574219c0-24.8125 20.1875-45 45-45h169.574219c24.8125 0 45 20.1875 45 45v134.121094c0 9.195312-7.480469 16.675781-16.675781 16.675781h-33.796876c-25.738281 0-46.675781 20.9375-46.675781 46.675781zm0 0"/><path d="m283.6875 439.785156c48.21875 0 87.445312-39.226562 87.445312-87.441406v-4.527344h13.671876v76.96875c0 8.285156 6.714843 15 15 15 8.285156 0 15-6.714844 15-15v-76.96875h5.933593c8.285157 0 15-6.714844 15-15 0-8.28125-6.714843-15-15-15h-5.933593v-38.175781c0-8.285156-6.714844-15-15-15-8.285157 0-15 6.714844-15 15v38.175781h-71.832032c-8.285156 0-15 6.71875-15 15 0 8.285156 6.714844 15 15 15h28.160156v4.527344c0 31.671875-25.769531 57.441406-57.445312 57.441406-8.285156 0-15 6.71875-15 15 0 8.285156 6.714844 15 15 15zm0 0"/><path d="m219.222656 188.644531-45.628906-107.484375c-2.351562-5.539062-7.789062-9.136718-13.808594-9.136718-6.015625 0-11.453125 3.597656-13.804687 9.136718l-45.628907 107.484375c-3.238281 7.625.320313 16.429688 7.945313 19.667969 1.910156.8125 3.898437 1.195312 5.851563 1.195312 5.839843 0 11.390624-3.429687 13.816406-9.140624l8.855468-20.863282h45.933594l8.855469 20.863282c3.238281 7.625 12.042969 11.183593 19.667969 7.945312s11.183594-12.042969 7.945312-19.667969zm-69.664062-39.140625 10.226562-24.097656 10.230469 24.097656zm0 0"/></svg>